<svg width="580" height="400" xmlns="http://www.w3.org/2000/svg">
 <!-- Created with Method Draw - http://github.com/duopixel/Method-Draw/ -->

 <g>
  <title>background</title>
  <rect fill="#fff" id="canvas_background" height="402" width="582" y="-1" x="-1"/>
  <g display="none" overflow="visible" y="0" x="0" height="100%" width="100%" id="canvasGrid">
   <rect fill="url(#gridpattern)" stroke-width="0" y="0" x="0" height="100%" width="100%"/>
  </g>
 </g>
 <g>
  <title>Layer 1</title>
  <rect rx="46" id="svg_3" height="222" width="227" y="91.447917" x="169.833333" fill-opacity="null" stroke-opacity="null" stroke-width="1.5" stroke="#000" fill="none"/>
  <text font-style="italic" font-weight="bold" xml:space="preserve" text-anchor="start" font-family="Helvetica, Arial, sans-serif" font-size="39" id="svg_4" y="167.447917" x="171.658203" fill-opacity="null" stroke-opacity="null" stroke-width="0" stroke="#000" fill="#000000">VIP视频解析</text>
  <g stroke="null" id="svg_13">
   <g id="svg_8" fill="#000000" transform="matrix(0.06459817961132541,0,0,-0.06418247649654212,-631.3821348220808,-229.30021395349223) ">
    <path stroke="null" id="svg_9" d="m14083.55072,-6443.39156c-5,-7 -61,-239 -123,-516c-122,-546 -127,-581 -81,-642l22,-30l-159,0c-109,0 -162,4 -170,12c-19,19 -14,56 11,72c20,14 29,14 81,0c72,-19 101,-16 101,11c0,16 -12,23 -65,37c-87,22 -122,22 -153,-2c-62,-49 -52,-146 17,-175c52,-22 498,-22 516,0c18,21 -4,45 -42,45c-60,0 -122,53 -133,114c-4,21 29,187 101,506c58,261 108,477 109,478c2,2 25,-9 52,-25c39,-23 60,-28 113,-28c53,0 74,5 113,28c27,16 50,27 52,25c1,-1 51,-217 109,-478c73,-321 105,-485 101,-506c-11,-59 -73,-114 -128,-114c-14,0 -30,-7 -37,-16c-11,-12 -10,-18 3,-31c13,-14 22,-14 64,-4c92,24 152,97 153,186c0,54 -220,1036 -236,1054c-11,12 -20,8 -59,-28c-52,-48 -81,-61 -137,-61c-51,0 -96,21 -138,65c-37,39 -43,41 -57,23z"/>
    <path stroke="null" id="svg_10" d="m14160.55072,-6747.39156c-11,-12 -10,-18 3,-32c16,-15 18,-15 34,0c13,14 14,20 3,32c-7,9 -16,16 -20,16c-4,0 -13,-7 -20,-16z"/>
    <path stroke="null" id="svg_11" d="m14360.55072,-6747.39156c-11,-12 -10,-18 3,-32c16,-15 18,-15 34,0c13,14 14,20 3,32c-7,9 -16,16 -20,16c-4,0 -13,-7 -20,-16z"/>
    <path stroke="null" id="svg_12" d="m14041.55072,-7144.39156c-8,-10 0,-71 34,-243c25,-126 50,-239 55,-252c15,-35 73,-56 116,-42c25,9 43,9 65,1c39,-13 95,8 109,41c5,13 30,126 55,253c40,204 43,231 30,244c-28,29 -42,-10 -89,-244c-25,-126 -50,-233 -55,-238c-5,-5 -17,-7 -27,-5c-18,3 -19,17 -22,190c-2,149 -5,188 -17,198c-12,10 -18,10 -30,0c-12,-10 -15,-49 -17,-199l-3,-186l-24,-3c-13,-2 -27,0 -32,5c-5,5 -30,112 -55,238c-51,253 -61,280 -93,242z"/>
   </g>
  </g>
 </g>
</svg>