<?xml version="1.0" standalone="no"?>
<!DOCTYPE svg PUBLIC "-//W3C//DTD SVG 20010904//EN"
 "http://www.w3.org/TR/2001/REC-SVG-20010904/DTD/svg10.dtd">
<svg version="1.0" xmlns="http://www.w3.org/2000/svg"
 width="300.000000pt" height="300.000000pt" viewBox="0 0 300.000000 300.000000"
 preserveAspectRatio="xMidYMid meet">

<g transform="translate(0.000000,300.000000) scale(0.100000,-0.100000)"
fill="#000000" stroke="none">
<path d="M1413 2078 c-5 -7 -61 -239 -123 -516 -122 -546 -127 -581 -81 -642
l22 -30 -159 0 c-109 0 -162 4 -170 12 -19 19 -14 56 11 72 20 14 29 14 81 0
72 -19 101 -16 101 11 0 16 -12 23 -65 37 -87 22 -122 22 -153 -2 -62 -49 -52
-146 17 -175 52 -22 498 -22 516 0 18 21 -4 45 -42 45 -60 0 -122 53 -133 114
-4 21 29 187 101 506 58 261 108 477 109 478 2 2 25 -9 52 -25 39 -23 60 -28
113 -28 53 0 74 5 113 28 27 16 50 27 52 25 1 -1 51 -217 109 -478 73 -321
105 -485 101 -506 -11 -59 -73 -114 -128 -114 -14 0 -30 -7 -37 -16 -11 -12
-10 -18 3 -31 13 -14 22 -14 64 -4 92 24 152 97 153 186 0 54 -220 1036 -236
1054 -11 12 -20 8 -59 -28 -52 -48 -81 -61 -137 -61 -51 0 -96 21 -138 65 -37
39 -43 41 -57 23z"/>
<path d="M1490 1774 c-11 -12 -10 -18 3 -32 16 -15 18 -15 34 0 13 14 14 20 3
32 -7 9 -16 16 -20 16 -4 0 -13 -7 -20 -16z"/>
<path d="M1690 1774 c-11 -12 -10 -18 3 -32 16 -15 18 -15 34 0 13 14 14 20 3
32 -7 9 -16 16 -20 16 -4 0 -13 -7 -20 -16z"/>
<path d="M1371 1377 c-8 -10 0 -71 34 -243 25 -126 50 -239 55 -252 15 -35 73
-56 116 -42 25 9 43 9 65 1 39 -13 95 8 109 41 5 13 30 126 55 253 40 204 43
231 30 244 -28 29 -42 -10 -89 -244 -25 -126 -50 -233 -55 -238 -5 -5 -17 -7
-27 -5 -18 3 -19 17 -22 190 -2 149 -5 188 -17 198 -12 10 -18 10 -30 0 -12
-10 -15 -49 -17 -199 l-3 -186 -24 -3 c-13 -2 -27 0 -32 5 -5 5 -30 112 -55
238 -51 253 -61 280 -93 242z"/>
</g>
</svg>
